<svg width="24px" height="24px" stroke-width="1.5" viewBox="0 0 24 24" fill="none" xmlns="http://www.w3.org/2000/svg" color="#ffffff">
  <!-- Left brace -->
  <path d="M9 3C7.89543 3 7 3.89543 7 5C7 6.65685 7 8.10067 7 9.5C7 10.5 5.5 11.5 5.5 11.5C5.5 11.5 7 12.5 7 13.5C7 14.8993 7 16.3431 7 18C7 19.1046 7.89543 20 9 20" stroke="#ffffff" stroke-width="1.5" stroke-linecap="round" stroke-linejoin="round"/>

  <!-- Right brace -->
  <path d="M15 3C16.1046 3 17 3.89543 17 5C17 6.65685 17 8.10067 17 9.5C17 10.5 18.5 11.5 18.5 11.5C18.5 11.5 17 12.5 17 13.5C17 14.8993 17 16.3431 17 18C17 19.1046 16.1046 20 15 20" stroke="#ffffff" stroke-width="1.5" stroke-linecap="round" stroke-linejoin="round"/>

  <!-- Pop arrow (key-value being extracted) -->
  <path d="M12 7V15M12 7L10 9M12 7L14 9" stroke="#ffffff" stroke-width="1.5" stroke-linecap="round" stroke-linejoin="round"/>
  <circle cx="12" cy="16" r="1.5" fill="#ffffff"/>
</svg>
